<?xml version="1.0" encoding="UTF-8" standalone="no"?>
<svg
   width="32"
   height="31.210566"
   viewBox="0 0 32 31.210566"
   fill="none"
   version="1.1"
   id="svg44"
   xmlns="http://www.w3.org/2000/svg"
   xmlns:svg="http://www.w3.org/2000/svg">
  <defs
     id="defs48" />
  <path
     fill-rule="evenodd"
     clip-rule="evenodd"
     d="M 16,0 C 7.16,0 0,7.16 0,16 c 0,7.08 4.58,13.06 10.94,15.18 0.8,0.14 1.1,-0.34 1.1,-0.76 0,-0.38 -0.02,-1.64 -0.02,-2.98 C 8,28.18 6.96,26.46 6.64,25.56 6.46,25.1 5.68,23.68 5,23.3 4.44,23 3.64,22.26 4.98,22.24 c 1.26,-0.02 2.16,1.16 2.46,1.64 1.44,2.42 3.74,1.74 4.66,1.32 0.14,-1.04 0.56,-1.74 1.02,-2.14 -3.56,-0.4 -7.28,-1.78 -7.28,-7.9 0,-1.74 0.62,-3.18 1.64,-4.3 -0.16,-0.4 -0.72,-2.04 0.16,-4.24 0,0 1.34,-0.42 4.4,1.64 1.28,-0.36 2.64,-0.54 4,-0.54 1.36,0 2.72,0.18 4,0.54 3.06,-2.08 4.4,-1.64 4.4,-1.64 0.88,2.2 0.32,3.84 0.16,4.24 1.02,1.12 1.64,2.54 1.64,4.3 0,6.14 -3.74,7.5 -7.3,7.9 0.58,0.5 1.08,1.46 1.08,2.96 0,2.14 -0.02,3.86 -0.02,4.4 0,0.42 0.3,0.92 1.1,0.76 C 27.42,29.06 32,23.06 32,16 32,7.16 24.84,0 16,0 Z"
     fill="#24292E"
     id="path42"
     style="fill:#10ae25;fill-opacity:1" />
</svg>
